<svg xmlns="http://www.w3.org/2000/svg" width="13.054" height="23" viewBox="0 0 13.054 23"><path d="M118.563,22H114.88a1.117,1.117,0,0,1-1.116-1.116V12.577h-2.149a1.117,1.117,0,0,1-1.116-1.116V7.9a1.117,1.117,0,0,1,1.116-1.116h2.149V5a6.07,6.07,0,0,1,1.6-4.349A5.781,5.781,0,0,1,119.632-1l2.809,0A1.117,1.117,0,0,1,123.554.12V3.426a1.117,1.117,0,0,1-1.115,1.116h-1.891c-.577,0-.724.116-.755.151-.052.059-.113.225-.113.684V6.785H122.3a1.134,1.134,0,0,1,.552.14,1.12,1.12,0,0,1,.574.976v3.56a1.117,1.117,0,0,1-1.116,1.115h-2.627v8.308A1.117,1.117,0,0,1,118.563,22Zm-3.451-1.348h3.218V11.973a.746.746,0,0,1,.745-.745h3V8.134h-3a.746.746,0,0,1-.745-.745V5.377a2.3,2.3,0,0,1,.451-1.576,2.285,2.285,0,0,1,1.765-.607h1.659V.353l-2.575,0c-2.786,0-4.518,1.784-4.518,4.654V7.389a.746.746,0,0,1-.745.745h-2.52v3.094h2.52a.746.746,0,0,1,.745.745Zm7.325-20.3h0Z" transform="translate(-110.5 1)" fill="#19647e"/></svg>